<svg height="512" viewBox="0 0 60 60" width="512" xmlns="http://www.w3.org/2000/svg"><g id="036---Up-Arrow" fill="none"><g id="Icons" transform="translate(2)"><path id="Shape" d="m56 27v5.12c-.0137488 2.6288788-1.1861982 5.1178855-3.2043637 6.8025814-2.0181656 1.684696-4.6766001 2.393581-7.2656363 1.9374186-3.048-.508-4.43-2.1-6.84-4.25-.2943809-.2657075-.7179586-.3323576-1.0797126-.1698933-.3617539.1624643-.5933272.523344-.5902874.9198933v12.63c-.0054165 2.6496624-1.1753273 5.1629902-3.1992887 6.8730547-2.0239614 1.7100644-4.6973309 2.443961-7.3107113 2.0069453h-.01c-4.3963331-.8465776-7.5602168-4.7130791-7.52-9.19v-12.32c.0030398-.3965493-.2285335-.757429-.5902874-.9198933-.361754-.1624643-.7853317-.0958142-1.0797126.1698933-1.6 1.428-1.068.957-2.34 2.09-2.6223848 2.3496047-6.37605524 2.9496395-9.60022531 1.534623-3.22417008-1.4150165-5.32374211-4.5839092-5.36977469-8.104623v-5.13c.049681-2.6489504 1.20225501-5.1570674 3.18-6.92 16.183-14.456 18.75-16.65 18.75-16.75 2.3356101-2.12595785 5.6156671-2.87004485 8.64-1.96 2.736.836 2.5 1.067 22.26 18.71 1.9771468 1.7624142 3.1266455 4.2717301 3.17 6.92z" fill="#e8edfc"/><path id="Shape" d="m52.83 20.08c-19.764-17.643-19.524-17.874-22.26-18.71-1.3467016-.3634348-2.7545966-.44076172-4.133-.227.369.058.745.13 1.133.227 2.736.836 2.5 1.067 22.26 18.71 1.9771468 1.7624142 3.1266455 4.2717301 3.17 6.92v5.12c-.0137476 4.3375207-3.1543762 8.0325022-7.433 8.745 2.5842174.4441083 5.2329631-.2710412 7.242493-1.9554406 2.0095299-1.6843993 3.1763714-4.1674969 3.190507-6.7895594v-5.12c-.0433545-2.6482699-1.1928532-5.1575858-3.17-6.92z" fill="#cad9fc"/><path id="Shape" d="m35.69 36.61c-.2943809-.2657075-.7179586-.3323576-1.0797126-.1698933-.3617539.1624643-.5933272.523344-.5902874.9198933v12.63c-.0070224 4.3973203-3.1839028 8.148743-7.52 8.88h.012c2.6133804.4370157 5.2867499-.2968809 7.3107113-2.0069453 2.0239614-1.7100645 3.1938722-4.2233923 3.1992887-6.8730547v-12.175c-.422-.38-.853-.777-1.332-1.205z" fill="#cad9fc"/><path id="Shape" d="m18.98 32.36v5c.0030398-.3965493-.2285335-.757429-.5902874-.9198933-.361754-.1624643-.7853317-.0958142-1.0797126.1698933l-2.34 2.09c-1.862031 1.6607127-4.3281465 2.477096-6.81330477 2.2554775-2.48515826-.2216186-4.76790347-1.4614902-6.30669523-3.4254775-1.20753195-1.5401146-1.85943343-3.4429621-1.85-5.4l-.00010096-4.99c-.00191045 1.4436637.35185131 2.86558 1.03010096 4.14.23924642.4380564.51347067.8560812.82 1.25 1.53879176 1.9639873 3.82153697 3.2038589 6.30669523 3.4254775 2.48515827.2216185 4.95127377-.5947648 6.81330477-2.2554775l2.34-2.09c.2943809-.2657075.7179586-.3323576 1.0797126-.1698933.3617539.1624643.5933272.523344.5902874.9198933z" fill="#a4c2f7"/><path id="Shape" d="m37.02 44.99v5c-.003173 2.4937393-1.0395159 4.8746878-2.8624527 6.576348-1.8229367 1.7016603-4.2694878 2.5718958-6.7575473 2.403652-4.8059194-.4148522-8.4781881-4.4665595-8.42-9.29v-5c-.0581881 4.8234405 3.6140806 8.8751478 8.42 9.29 2.4880595.1682438 4.9346106-.7019917 6.7575473-2.403652 1.8229368-1.7016602 2.8592797-4.0826087 2.8624527-6.576348z" fill="#a4c2f7"/><path id="Shape" d="m56.0000986 27.12-.0000986 5c.0097115 2.043283-.6980982 4.0251503-2 5.6-1.7155275 2.0743383-4.268179 3.2736444-6.96 3.27-.5061879.0014193-1.0115032-.0420847-1.51-.13-1.6743368-.2791569-3.2349153-1.0282346-4.5-2.16l-2.34-2.09c-.2943809-.2657075-.7179586-.3323576-1.0797126-.1698933-.3617539.1624643-.5933272.523344-.5902874.9198933v-5c-.0030398-.3965493.2285335-.757429.5902874-.9198933.361754-.1624643.7853317-.0958142 1.0797126.1698933l2.34 2.09c1.2650847 1.1317654 2.8256632 1.8808431 4.5 2.16.4984968.0879153 1.0038121.1314193 1.51.13 2.1120779.0023264 4.1578495-.7374077 5.78-2.09 2.0227656-1.6690312 3.1899557-4.1575686 3.1800986-6.78z" fill="#7facfa"/></g><g id="Layer_3" fill="#fff" transform="translate(2 1)"><path id="Shape" d="m22.05 2.23c-.754.757-3.605 3.214-18.87 16.85-2.01448083 1.7949668-3.17067415 4.3618614-3.18 7.06v4.99c.02366434 2.623944 1.19841753 5.1051256 3.2131167 6.7863839 2.01469916 1.6812583 4.66607286 2.392964 7.2518833 1.9466161-4.28947118-.6931691-7.44775483-4.3879167-7.465-8.733v-4.99c.00932585-2.6981386 1.16551917-5.2650332 3.18-7.06 16.743-14.956 18.053-16.031 18.87-16.85 1.2572755-1.08299127 2.7824431-1.80827478 4.416-2.1-2.6617398-.44573844-5.3831426.32488531-7.416 2.1z"/><path id="Shape" d="m20.31 35.61-1.33 1.19c0 12.762-.183 13.1.609 15.216 1.4502816 4.0793522 5.6081629 6.5399158 9.882 5.848-3.638876-.7000605-6.501424-3.5168709-7.26-7.144-.308-1.4-.231-.676-.231-14.36.0030398-.3965493-.2285335-.757429-.5902874-.9198933-.361754-.1624643-.7853317-.0958142-1.0797126.1698933z"/></g><g id="Layer_2" transform="translate(0 -1)"><path id="Rectangle-path" d="m4.161 17.411h8v2h-8z" fill="#fff" transform="matrix(.746 -.666 .666 .746 -10.188 10.111)"/><g fill="#428dff"><path id="Shape" d="m7.5 17.665c-.41196936.367817-.44776938.999956-.07996227 1.4119341.3678071.4119782.99994521.4477934 1.41193222.0799962.41198702-.3677972.44781738-.9999345.08003005-1.4119303-.17662901-.19786-.42462633-.3174466-.68943061-.3324497-.26480429-.015003-.52472206.0758064-.72256939.2524497z"/><path id="Shape" d="m5.843 21.821c.26652013-.2379389.385856-.5999903.31305495-.9497729-.07280105-.3497827-.32667882-.6341563-.666-.746-.33932118-.1118438-.71253482-.034166-.97905495.2037729-2.23313908 1.9807641-3.51119037 4.8229813-3.511 7.808 0 6.363-.037 5.983.088 6.263.51612931 3.6494125 3.00050021 6.7178088 6.46267214 7.9819158 3.46217196 1.264107 7.33915876.5183674 10.08532786-1.9399158l2.344-2.082v12.32c-.0679582 5.3545553 4.0190626 9.8487056 9.356 10.288 2.7639075.1862294 5.4814284-.781124 7.5059865-2.6718992 2.0245582-1.8907751 3.1751488-4.5359279 3.1780135-7.3061008v-12.635l2.341 2.092c2.7462388 2.458092 6.6230804 3.2038469 10.0852733 1.9400178 3.462193-1.2638291 5.9468896-4.3317818 6.4637267-7.9810178.126-.281.09.118.09-6.406-.0057881-.0679562-.0192059-.135045-.04-.2-.0835647-2.8605901-1.3371929-5.5616022-3.468-7.472-11.11-9.916-18.992-16.947-18.892-16.857-3.8126083-3.32158107-9.4996121-3.29245648-13.278.068l-12.843 11.461c-.2665201.2379389-.385856.5999903-.313055.9497729.0728011.3497827.3266789.6341563.666.746.3393212.1118438.7125349.034166.979055-.2037729 17.671-15.775 11.609-10.318 12.903-11.51 3.0481842-2.67231284 7.6105542-2.65215003 10.635.047l18.811 16.8c3.2885392 2.8720169 3.7583824 7.8137134 1.07 11.254-1.3909218 1.6816043-3.4062881 2.724758-5.5823713 2.8894356-2.1760831.1646776-4.3254821-.5633027-5.9536287-2.0164356l-2.338-2.086c-.5877659-.5276122-1.4309932-.6598923-2.1520858-.3376054-.7210925.3222869-1.1849722 1.0387686-1.1839142 1.8286054v12.629c.0083214 2.2115603-.9086652 4.3258145-2.529 5.831-2.3790965 2.1991185-5.8446806 2.7577242-8.7942688 1.4175183s-4.8083247-4.3180259-4.7167312-7.5565183v-12.326c.001058-.7898368-.4628217-1.5063185-1.1839142-1.8286054-.7210926-.3222869-1.5643199-.1900068-2.1520858.3376054l-2.337 2.086c-2.3433814 2.1105185-5.7106572 2.6412086-8.58956966 1.3537353-2.87891248-1.2874734-4.72823549-4.1510695-4.71743034-7.3047353.03572171-2.368014 1.06787222-4.6112986 2.843-6.179zm36.519 13.622c2.0660037 1.8471682 4.8050632 2.755664 7.5654466 2.5093196 2.7603833-.2463444 5.2952861-1.6255033 7.0015534-3.8093196-.4194168 2.9135244-2.4077412 5.3600229-5.1739802 6.3662321-2.7662389 1.0062093-5.8617267.4089287-8.0550198-1.5542321l-2.34-2.091c-.3673622-.3248352-.8426694-.5009805-1.333-.494v-3.013zm-4.422 16.624c-.2391183 1.8213147-1.1054597 3.5023706-2.45 4.754-2.1907682 2.0505186-5.3447896 2.7026509-8.1690996 1.6890609-2.8243099-1.0135901-4.8439171-3.5224373-5.2309004-6.4980609 1.8647873 2.4969482 4.7948561 3.9720761 7.9112747 3.9828902 3.1164186.010814 6.0566542-1.4439437 7.9387253-3.9278902zm-20.3-16.624 2.341-2.087v3.014c-.4912941-.0073441-.9676676.1687999-1.336.494l-2.339 2.09c-2.1862399 1.9659491-5.2770239 2.569139-8.04202802 1.5694628-2.76500414-.9996763-4.75543289-3.4399585-5.17897198-6.3494628 1.71401507 2.1703944 4.24783586 3.5371167 7.0029675 3.7773436 2.7551317.2402268 5.4872539-.6673446 7.5510325-2.5083436z"/><path id="Shape" d="m7.507 24.666c.17662901.19786.42462633.3174466.68943061.3324497.26480429.015003.52472206-.0758064.72256939-.2524497l11.2-10c.2665201-.2379389.385856-.5999903.313055-.9497729-.0728011-.3497827-.3266788-.6341563-.666-.746-.3393212-.1118438-.7125349-.034166-.979055.2037729l-11.2 10c-.19786004.176629-.31744659.4246263-.33244966.6894306-.01500308.2648043.07580641.5247221.25244966.7225694z"/><path id="Shape" d="m27.666 8.009c.2665201-.23793888.385856-.59999027.313055-.94977292-.0728011-.34978264-.3266789-.63415624-.666-.746-.3393212-.11184376-.7125349-.03416596-.979055.20377292l-4 3.571c-.3094427.2762361-.416223.7148312-.2683891 1.1023958.1478339.3875647.5195865.6436266.9343891.6436042.509 0 .231.135 4.666-3.825z"/></g></g></g></svg>